<svg xmlns="http://www.w3.org/2000/svg" xmlns:xlink="http://www.w3.org/1999/xlink" width="1080" zoomAndPan="magnify" viewBox="0 0 810 809.999993" height="1080" preserveAspectRatio="xMidYMid meet" version="1.0"><path fill="#ffffff" d="M 405 2.683594 C 399.46875 2.683594 394.824219 5.515625 391.773438 9.625 C 391.519531 9.957031 391.089844 10.074219 390.855469 10.441406 L 156.171875 379.234375 C 155.886719 379.667969 155.847656 380.222656 155.613281 380.671875 C 155.078125 381.730469 154.722656 382.773438 154.402344 383.914062 C 154.132812 384.902344 153.898438 385.871094 153.8125 386.894531 C 153.730469 388.035156 153.824219 389.125 153.976562 390.300781 C 154.0625 390.953125 153.875 391.625 154.042969 392.265625 C 154.160156 392.714844 154.480469 393.070312 154.632812 393.507812 C 154.78125 393.945312 154.726562 394.414062 154.925781 394.851562 C 155.210938 395.503906 155.71875 395.917969 156.074219 396.519531 C 156.625 397.476562 157.199219 398.382812 157.9375 399.203125 C 158.742188 400.109375 159.636719 400.859375 160.589844 401.5625 C 161.109375 401.949219 161.445312 402.488281 162 402.804688 L 396.683594 536.914062 C 397.050781 537.128906 397.476562 537.21875 397.863281 537.402344 C 398.316406 537.621094 398.75 537.777344 399.238281 537.960938 C 401.097656 538.628906 403.039062 539.105469 405 539.105469 C 406.960938 539.105469 408.902344 538.648438 410.761719 537.960938 C 411.25 537.777344 411.667969 537.589844 412.136719 537.371094 C 412.523438 537.1875 412.949219 537.097656 413.316406 536.878906 L 648 402.773438 C 648.101562 402.707031 648.164062 402.59375 648.261719 402.542969 C 649.972656 401.523438 651.476562 400.207031 652.75 398.617188 C 653.050781 398.230469 653.25 397.789062 653.535156 397.371094 C 654.085938 396.550781 654.703125 395.789062 655.105469 394.851562 C 655.289062 394.414062 655.21875 393.960938 655.367188 393.507812 C 655.519531 393.070312 655.839844 392.714844 655.957031 392.265625 C 656.109375 391.625 655.972656 390.953125 656.054688 390.300781 C 656.207031 389.125 656.289062 388.019531 656.1875 386.863281 C 656.101562 385.839844 655.867188 384.871094 655.597656 383.882812 C 655.277344 382.742188 654.9375 381.695312 654.386719 380.640625 C 654.152344 380.1875 654.097656 379.667969 653.828125 379.234375 L 419.144531 10.441406 C 418.925781 10.089844 418.480469 9.941406 418.226562 9.625 C 415.175781 5.515625 410.53125 2.683594 405 2.683594 Z M 405 45.636719 L 405 304.421875 L 602.164062 390.398438 L 405 505.578125 L 405 304.421875 L 196.507812 376.710938 Z M 167.628906 455.519531 C 163.9375 456.117188 160.449219 457.972656 157.808594 460.921875 C 152.542969 466.839844 152.132812 475.636719 156.824219 482.007812 L 391.511719 800.507812 C 391.730469 800.792969 392.078125 800.894531 392.296875 801.164062 C 393.417969 802.519531 394.765625 803.5625 396.257812 804.503906 C 396.828125 804.871094 397.273438 805.332031 397.894531 805.617188 C 400.074219 806.636719 402.433594 807.316406 405 807.316406 C 407.566406 807.316406 409.925781 806.636719 412.105469 805.617188 C 412.707031 805.332031 413.171875 804.855469 413.742188 804.503906 C 415.234375 803.5625 416.582031 802.519531 417.703125 801.164062 C 417.921875 800.894531 418.289062 800.792969 418.488281 800.507812 L 653.175781 482.007812 C 657.867188 475.636719 657.472656 466.839844 652.191406 460.921875 C 646.929688 454.988281 638.226562 453.59375 631.371094 457.515625 L 405 586.875 L 178.628906 457.515625 C 175.210938 455.570312 171.324219 454.917969 167.628906 455.519531 Z M 230.851562 525.976562 L 405 628.160156 L 405 759.15625 Z M 230.851562 525.976562 " fill-opacity="1" fill-rule="nonzero"/></svg>